<svg width="45" height="41" viewBox="0 0 45 41" fill="none" xmlns="http://www.w3.org/2000/svg">
<g clip-path="url(#clip0)">
<path d="M42.25 9.5H33.25V2.75C33.25 2.15326 33.013 1.58097 32.591 1.15901C32.169 0.737053 31.5967 0.5 31 0.5H13C12.4033 0.5 11.831 0.737053 11.409 1.15901C10.9871 1.58097 10.75 2.15326 10.75 2.75V18.5H1.75C1.15326 18.5 0.580967 18.7371 0.15901 19.159C-0.262947 19.581 -0.5 20.1533 -0.5 20.75V38.75C-0.5 39.3467 -0.262947 39.919 0.15901 40.341C0.580967 40.7629 1.15326 41 1.75 41H42.25C42.8467 41 43.419 40.7629 43.841 40.341C44.263 39.919 44.5 39.3467 44.5 38.75V11.75C44.5 11.1533 44.263 10.581 43.841 10.159C43.419 9.73705 42.8467 9.5 42.25 9.5ZM8.5 36.5H4V32H8.5V36.5ZM8.5 27.5H4V23H8.5V27.5ZM19.75 36.5H15.25V32H19.75V36.5ZM19.75 27.5H15.25V23H19.75V27.5ZM19.75 18.5H15.25V14H19.75V18.5ZM19.75 9.5H15.25V5H19.75V9.5ZM28.75 36.5H24.25V32H28.75V36.5ZM28.75 27.5H24.25V23H28.75V27.5ZM28.75 18.5H24.25V14H28.75V18.5ZM28.75 9.5H24.25V5H28.75V9.5ZM40 36.5H35.5V32H40V36.5ZM40 27.5H35.5V23H40V27.5ZM40 18.5H35.5V14H40V18.5Z" fill="#A2A2A2"/>
</g>
<defs>
<clipPath id="clip0">
<rect width="45" height="41" fill="white"/>
</clipPath>
</defs>
</svg>
