<svg width="43" height="42" viewBox="0 0 43 42" fill="none" xmlns="http://www.w3.org/2000/svg">
<path d="M21.4995 0.166672C9.69261 0.166672 0.0869141 9.51251 0.0869141 21C0.0869141 32.4875 9.69261 41.8333 21.4995 41.8333C33.3064 41.8333 42.9121 32.4875 42.9121 21C42.9121 9.51251 33.3064 0.166672 21.4995 0.166672ZM4.36943 21C4.36943 19.1271 4.70347 17.3292 5.29232 15.6479L8.65195 18.9167L12.9345 23.0833V27.25L17.217 31.4167L19.3583 33.5V37.5229C10.9238 36.4917 4.36943 29.4833 4.36943 21ZM35.0537 31.1521C33.6554 30.0563 31.5356 29.3333 30.0646 29.3333V27.25C30.0646 26.1449 29.6134 25.0851 28.8102 24.3037C28.0071 23.5223 26.9178 23.0833 25.782 23.0833H17.217V16.8333C18.3528 16.8333 19.4421 16.3944 20.2452 15.613C21.0483 14.8315 21.4995 13.7717 21.4995 12.6667V10.5833H23.6408C24.7766 10.5833 25.8658 10.1444 26.669 9.36295C27.4721 8.58155 27.9233 7.52174 27.9233 6.41667V5.56042C34.1929 8.03751 38.6296 14.0208 38.6296 21C38.6292 24.6765 37.3711 28.2482 35.0537 31.1521V31.1521Z" fill="#CACACA"/>
</svg>
